<svg xmlns="http://www.w3.org/2000/svg" width="6197" height="2262" viewBox="0 0 6197 2262" version="1.1">
	<path d="M 1793.653 186.033 C 1771.065 188.030, 1749.394 194.391, 1727.500 205.450 C 1666.159 236.434, 1610.464 299.662, 1547.762 409.500 C 1515.262 466.434, 1486.385 524.753, 1421.455 664.593 C 1358.554 800.061, 1331.950 854.221, 1297.848 916.225 C 1291.224 928.271, 1287 937.056, 1287 938.792 C 1287 941.324, 1290.191 944.146, 1316.330 964.731 C 1349.194 990.612, 1355.773 995.390, 1364.740 999.888 C 1390.482 1012.801, 1415.210 1004.744, 1436.450 976.523 C 1453.716 953.582, 1507.894 857.170, 1543.402 786.196 C 1574.102 724.834, 1592.492 683.939, 1642.201 566.500 C 1679.972 477.264, 1701.512 430.006, 1724.019 387 C 1738.716 358.915, 1746.487 345.482, 1792.633 268.394 C 1817.030 227.637, 1834 198.283, 1834 196.840 C 1834 194.057, 1828.922 188.658, 1824.866 187.130 C 1820.870 185.624, 1804.699 185.056, 1793.653 186.033 M 4952 659 L 4952 792 5142.500 792 C 5247.275 792, 5333 792.236, 5333 792.524 C 5333 792.812, 5326.973 803.049, 5319.607 815.274 C 5202.508 1009.597, 5099.068 1281.927, 5046.612 1534 C 5037.489 1577.838, 5022 1666.732, 5022 1675.250 C 5022 1676.906, 5027.780 1677, 5129.500 1677 L 5237 1677 5237 1719 L 5237 1761 4969.500 1761 L 4702 1761 4702 1617.500 L 4702 1474 4776.281 1474 L 4850.563 1474 4926.948 1314.321 C 4968.960 1226.497, 5003.333 1154.140, 5003.333 1153.528 C 5003.333 1152.916, 4968.954 1080.546, 4926.935 992.705 L 4850.537 832.994 4697.035 833.247 L 4543.533 833.500 4467.226 992.971 C 4425.257 1080.680, 4391.050 1153.211, 4391.209 1154.151 C 4391.369 1155.091, 4425.700 1227.425, 4467.500 1314.893 L 4543.500 1473.925 4614.750 1473.962 L 4686 1474 4686 1626 L 4686 1778 4970 1778 L 5254 1778 5254 1727.500 L 5254 1677 5314.766 1677 L 5375.531 1677 5378.860 1649.250 C 5415.097 1347.119, 5502.434 1046.375, 5625.592 799.624 L 5643 764.747 5643 645.374 L 5643 526 5297.500 526 L 4952 526 4952 659 M 1032.500 664.074 C 966.350 670.714, 916.008 727.509, 916.008 795.500 C 916.008 845.589, 942.991 890.345, 986.736 912.815 C 1006.195 922.811, 1023.690 926.989, 1046.119 926.996 C 1067.658 927.003, 1085.365 922.847, 1103.811 913.457 C 1139.981 895.043, 1165.023 861.899, 1173.664 821 C 1176.173 809.126, 1176.173 781.874, 1173.664 770 C 1168.062 743.483, 1155.591 719.930, 1137.568 701.826 C 1109.816 673.949, 1071.452 660.164, 1032.500 664.074 M 1942 1077.430 L 1942 1425 2040.500 1425 L 2139 1425 2139 1288.872 L 2139 1152.744 2152.750 1153.260 C 2167.988 1153.833, 2173.378 1155.214, 2179.242 1160.048 C 2190.463 1169.297, 2192.890 1188.338, 2192.963 1267.695 C 2193.015 1324.462, 2195.712 1389.218, 2199.149 1416.250 L 2200.262 1425 2299.198 1425 C 2392.963 1425, 2398.107 1424.909, 2397.594 1423.250 C 2395.963 1417.973, 2394.761 1376.946, 2393.953 1299 C 2393.455 1250.875, 2392.829 1210.150, 2392.563 1208.500 C 2392.297 1206.850, 2391.575 1201, 2390.959 1195.500 C 2384.821 1140.678, 2363.671 1106.411, 2324.158 1087.271 L 2312.633 1081.688 2320.805 1077.915 C 2360.106 1059.767, 2385.312 1024.359, 2394.424 974.500 C 2399.936 944.337, 2400.136 903.741, 2394.931 871.814 C 2382.265 794.138, 2339.076 750.183, 2261 735.511 C 2235.865 730.788, 2234.647 730.752, 2084.250 730.294 L 1942 729.861 1942 1077.430 M 3519.758 811.250 L 3519.500 871.500 3491.750 871.766 L 3464 872.032 3464 948.016 L 3464 1024 3489.962 1024 L 3515.925 1024 3516.270 1170.750 C 3516.579 1302.428, 3516.788 1318.644, 3518.307 1328.641 C 3523.490 1362.767, 3533.530 1385.143, 3550.821 1401.112 C 3566.804 1415.872, 3588.548 1424.815, 3620.001 1429.565 C 3634.409 1431.741, 3679.803 1432.581, 3702.634 1431.095 C 3727.098 1429.503, 3752.756 1425.696, 3764.750 1421.879 L 3768 1420.845 3768 1350.891 L 3768 1280.937 3757.750 1281.592 C 3744.968 1282.409, 3734.324 1280.891, 3727 1277.209 C 3720.184 1273.781, 3715.732 1267.023, 3714.094 1257.620 C 3713.345 1253.318, 3713 1215.482, 3713 1137.668 L 3713 1024 3744.500 1024 L 3776 1024 3776 948 L 3776 872 3744.500 872 L 3713 872 3713 811.500 L 3713 751 3616.508 751 L 3520.016 751 3519.758 811.250 M 271.393 847.978 C 270.233 848.447, 268.595 850.556, 267.752 852.665 C 265.587 858.084, 262.674 882.279, 263.278 889.839 C 264.212 901.540, 273.207 915.857, 287.023 927.636 C 307.942 945.470, 344.412 964.053, 386 978.070 C 398.351 982.232, 531.200 1016.841, 837.500 1095.691 L 1271.500 1207.415 1285 1207.393 C 1296.433 1207.376, 1299.417 1207.033, 1304.490 1205.157 C 1328.643 1196.227, 1348.014 1173.839, 1356.198 1145.395 C 1358.048 1138.968, 1358.466 1135.083, 1358.447 1124.500 C 1358.426 1112.958, 1358.134 1110.744, 1355.839 1104.758 C 1351.889 1094.456, 1347.270 1087.456, 1338.500 1078.483 C 1301.750 1040.885, 1218.297 1013.793, 1052 985.477 C 1033.575 982.340, 958.650 967.934, 885.500 953.465 C 775.901 931.786, 750.477 927.054, 741 926.570 C 542.579 916.428, 410.480 895.549, 309.006 858.291 C 289.193 851.017, 276.646 846.932, 274.522 847.063 C 273.960 847.098, 272.552 847.510, 271.393 847.978 M 2655.500 864.051 C 2564.111 869.328, 2505.618 909.482, 2475.139 987.865 C 2457.182 1034.042, 2449.216 1095.929, 2451.962 1167.915 C 2454.680 1239.184, 2464.774 1288.888, 2484.979 1330.500 C 2514.050 1390.370, 2558.799 1421.574, 2630.112 1431.703 C 2648.191 1434.271, 2705.804 1434.263, 2725 1431.691 C 2762.634 1426.647, 2791.602 1416.543, 2816.194 1399.881 C 2830.397 1390.259, 2848.744 1371.428, 2858.836 1356.113 C 2883.120 1319.264, 2896.827 1274.188, 2903.572 1209 C 2905.744 1188.004, 2906.655 1119.127, 2905.061 1096.363 C 2899.434 1015.995, 2878.995 959.203, 2841.692 920.286 C 2813.730 891.113, 2775.238 873.075, 2727 866.538 C 2714.444 864.837, 2685.330 862.948, 2675 863.165 C 2671.425 863.239, 2662.650 863.639, 2655.500 864.051 M 4012.423 863.985 C 3960.222 867.206, 3919.341 881.744, 3886.904 908.621 C 3851.714 937.780, 3827.010 986.371, 3816.041 1048 C 3807.805 1094.275, 3806.145 1166.487, 3812.005 1223.535 C 3822.152 1322.312, 3854.082 1380.800, 3914.358 1411.022 C 3945.234 1426.502, 3974.276 1432.705, 4020.500 1433.693 C 4056.789 1434.468, 4081.412 1432.265, 4108.500 1425.820 C 4182.402 1408.236, 4227.143 1363.337, 4243.519 1290.322 C 4246.219 1278.283, 4249.987 1254.677, 4249.995 1249.750 L 4250 1247 4155.153 1247 L 4060.306 1247 4059.680 1257.933 C 4059.050 1268.947, 4056.913 1280.571, 4054.422 1286.532 C 4050.918 1294.918, 4043.365 1299.940, 4034.200 1299.978 C 4015.505 1300.056, 4008.707 1279.507, 4007.082 1218 C 4006.682 1202.875, 4006.527 1190.162, 4006.737 1189.750 C 4006.946 1189.338, 4062.258 1189, 4129.652 1189 L 4252.185 1189 4251.730 1133.750 C 4251.245 1074.835, 4250.609 1064.828, 4245.461 1035.122 C 4228.754 938.701, 4179.097 884.220, 4093.649 868.565 C 4070.092 864.249, 4037.726 862.424, 4012.423 863.985 M 2140 941.395 L 2140 1014 2148.750 1013.992 C 2177.971 1013.967, 2188.601 1005.916, 2193.632 980 C 2196.909 963.119, 2197.566 923.905, 2194.921 903 C 2192.788 886.135, 2187.173 876.540, 2176.727 871.910 C 2172.158 869.885, 2169.516 869.542, 2155.750 869.192 L 2140 868.790 2140 941.395 M 2967.266 1090.250 C 2967.547 1287.884, 2967.733 1309.449, 2969.235 1318.545 C 2973.069 1341.767, 2977.074 1355.937, 2983.965 1370.658 C 2999.539 1403.927, 3024.560 1422.781, 3063.626 1430.684 C 3076.058 1433.200, 3117.311 1433.256, 3130.500 1430.776 C 3165.709 1424.155, 3192.541 1407.912, 3212.500 1381.138 C 3215.800 1376.711, 3218.838 1373.069, 3219.250 1373.045 C 3219.662 1373.020, 3220 1374.560, 3220 1376.466 C 3220 1381.061, 3222.587 1399.755, 3225.160 1413.750 L 3227.228 1425 3320.864 1425.001 L 3414.500 1425.001 3413.888 1353.251 C 3413.552 1313.788, 3413.215 1189.362, 3413.138 1076.750 L 3413 872 3314.017 872 L 3215.034 872 3214.767 1067.250 L 3214.500 1262.500 3212.028 1269.499 C 3207.617 1281.986, 3198.715 1288.074, 3186.912 1286.676 C 3179.877 1285.843, 3174.128 1282.384, 3170.786 1276.974 C 3164.783 1267.259, 3165.036 1276.560, 3165.017 1065.250 L 3165 872 3065.978 872 L 2966.956 872 2967.266 1090.250 M 4682 941.459 C 4663.714 946.133, 4647.023 959.622, 4632.427 981.523 C 4611.888 1012.339, 4597.992 1055.238, 4591.457 1108 C 4589.302 1125.401, 4588.461 1168.808, 4589.907 1188 C 4595.318 1259.829, 4616.958 1320.206, 4648.507 1351.500 C 4657.904 1360.822, 4664.472 1365.332, 4675.221 1369.846 C 4680.873 1372.219, 4682.748 1372.482, 4694 1372.482 C 4705.252 1372.482, 4707.127 1372.219, 4712.779 1369.846 C 4723.474 1365.355, 4730.050 1360.841, 4739.508 1351.500 C 4767.718 1323.639, 4787.472 1274.209, 4796.057 1210 C 4798.726 1190.040, 4799.777 1145.832, 4798.091 1124.431 C 4790.741 1031.144, 4755.822 958.063, 4711.425 943.055 C 4702.851 940.157, 4689.854 939.452, 4682 941.459 M 4025.637 993.465 C 4012.321 998.212, 4007.436 1016.444, 4006.872 1063.500 L 4006.656 1081.500 4031.828 1081.767 L 4057 1082.034 4056.974 1059.267 C 4056.920 1011.197, 4053.020 996.509, 4039.404 993.080 C 4033.830 991.677, 4030.383 991.773, 4025.637 993.465 M 2668.015 1006.752 C 2661.627 1009.957, 2658.320 1019.147, 2655.872 1040.500 C 2654.214 1054.969, 2653.490 1204.423, 2654.946 1231.681 C 2657.491 1279.303, 2662.277 1291.843, 2678.261 1292.767 C 2695.201 1293.747, 2700.499 1283.192, 2702.989 1243.500 C 2704.291 1222.748, 2704.272 1078.740, 2702.965 1056 C 2701.658 1033.273, 2699.684 1020.965, 2696.229 1014 C 2692.671 1006.829, 2689.174 1005.003, 2679 1005.003 C 2673.855 1005.003, 2670.406 1005.552, 2668.015 1006.752 M 1104 1206.555 C 1100.425 1207.323, 1093.675 1209.831, 1089 1212.128 C 1072.658 1220.160, 1058.720 1237.661, 1054.361 1255.624 C 1051.861 1265.924, 1052.083 1285.080, 1054.831 1296.301 C 1062.715 1328.491, 1087.430 1353.989, 1118.500 1361.988 C 1122.900 1363.121, 1182.384 1372.362, 1250.686 1382.524 C 1343.811 1396.379, 1377.223 1401, 1384.276 1401 C 1416.185 1401, 1443.077 1380.307, 1453.153 1348 C 1456.491 1337.295, 1456.503 1316.184, 1453.177 1304.568 C 1448.270 1287.429, 1437.052 1270.630, 1423.757 1260.510 C 1416.044 1254.640, 1405.015 1248.919, 1397 1246.631 C 1388.642 1244.246, 1123.834 1204.988, 1116.716 1205.079 C 1113.297 1205.123, 1107.575 1205.787, 1104 1206.555 M 1118.472 1398.970 C 1096.609 1402.091, 1080.764 1410.758, 1068.411 1426.353 C 1057.187 1440.522, 1048.861 1460.633, 1043.503 1486.515 C 1041.119 1498.033, 1040.868 1501.082, 1041.277 1513.500 C 1041.810 1529.644, 1043.220 1535.737, 1049.260 1548 C 1056.442 1562.579, 1070.497 1574.910, 1084.500 1578.918 C 1086.700 1579.547, 1191.775 1591.978, 1318 1606.541 C 1444.225 1621.105, 1555.375 1634.171, 1565 1635.577 C 1606.284 1641.607, 1639.233 1648.543, 1702.500 1664.522 C 1928.774 1721.671, 2103.939 1765.237, 2115 1767.116 C 2122.701 1768.424, 2132.871 1769.429, 2138.675 1769.455 C 2150.505 1769.507, 2152.936 1768.367, 2156.828 1760.941 C 2158.987 1756.822, 2159.121 1755.629, 2158.680 1744.500 C 2158.059 1728.838, 2155.976 1719.592, 2150.501 1708.191 C 2114.612 1633.473, 1997.327 1575.693, 1786.833 1529.032 C 1752.935 1521.518, 1705.208 1511.999, 1651.374 1502.015 C 1624.904 1497.106, 1505.879 1472.614, 1386.874 1447.588 C 1267.868 1422.562, 1166.225 1401.387, 1161 1400.532 C 1149.406 1398.635, 1126.667 1397.800, 1118.472 1398.970 M 1055.746 1604.355 C 1049.975 1605.979, 1042.181 1611.146, 1038.452 1615.820 C 1036.939 1617.716, 1017.387 1659.161, 995.003 1707.920 L 954.305 1796.572 910.031 1869.036 C 885.680 1908.891, 862.451 1946.231, 858.411 1952.013 C 841.055 1976.850, 821.368 1999.063, 796.546 2021.816 C 719.069 2092.833, 687.298 2127.454, 672.757 2156.707 C 668.212 2165.850, 667.632 2167.759, 667.288 2174.717 C 666.955 2181.460, 667.213 2183.031, 669.217 2186.470 C 679.244 2203.680, 711.104 2199.157, 764.526 2172.941 C 806.079 2152.550, 854.125 2122.261, 909.136 2081.777 C 920.886 2073.130, 937.700 2060.807, 946.500 2054.393 C 1029.499 1993.901, 1103.183 1917.435, 1146.671 1846.667 C 1184.058 1785.825, 1196.633 1733.963, 1181.992 1701 C 1180.404 1697.425, 1177.727 1690.970, 1176.044 1686.655 C 1169.939 1671.001, 1160.693 1657.742, 1146.205 1643.860 C 1130.359 1628.678, 1115.906 1620.005, 1088.587 1609.287 C 1072.893 1603.129, 1064.551 1601.876, 1055.746 1604.355 M 3368.353 1609.998 C 3356.743 1613.797, 3347.677 1624.889, 3345.026 1638.540 C 3344.214 1642.718, 3343.963 1659.747, 3344.187 1695.500 C 3344.503 1745.900, 3344.533 1746.566, 3346.786 1752.145 C 3351.871 1764.740, 3360.252 1771.900, 3373.057 1774.591 C 3387.741 1777.677, 3400.851 1774.309, 3410.080 1765.080 C 3417.973 1757.187, 3420.220 1751.027, 3420.780 1735.750 L 3421.211 1724 3410.205 1724 L 3399.199 1724 3398.849 1732.750 C 3398.396 1744.099, 3396.253 1748.568, 3389.686 1751.862 C 3383.075 1755.177, 3377.016 1754.251, 3371.910 1749.145 C 3366.140 1743.376, 3365.882 1740.644, 3366.211 1688.904 C 3366.492 1644.827, 3366.563 1643.364, 3368.656 1638.834 C 3371.388 1632.924, 3374.780 1630.712, 3381.872 1630.216 C 3386.531 1629.891, 3388.093 1630.226, 3390.946 1632.165 C 3396.518 1635.951, 3398.342 1640.126, 3398.823 1650.186 L 3399.245 1659 3410.246 1659 L 3421.247 1659 3420.827 1647.234 C 3420.451 1636.687, 3420.091 1634.791, 3417.351 1628.937 C 3413.211 1620.088, 3409.045 1615.640, 3401.355 1611.854 C 3395.600 1609.021, 3393.747 1608.629, 3384.690 1608.327 C 3376.521 1608.055, 3373.281 1608.386, 3368.353 1609.998 M 2829 1610.738 C 2829 1612.069, 2851.032 1769.444, 2851.541 1771.750 C 2852.025 1773.940, 2852.380 1774, 2864.791 1774 L 2877.543 1774 2884.856 1726.750 C 2891.348 1684.799, 2893.660 1671.775, 2893.921 1675.680 C 2893.964 1676.329, 2897.150 1698.523, 2901 1725 C 2904.850 1751.477, 2908 1773.333, 2908 1773.570 C 2908 1773.806, 2913.850 1774, 2921 1774 C 2928.150 1774, 2934 1773.717, 2934 1773.371 C 2934 1772.134, 2956.041 1615.444, 2956.594 1612.750 L 2957.159 1610 2945.710 1610 L 2934.262 1610 2933.749 1613.250 C 2933.466 1615.037, 2930.378 1641.444, 2926.885 1671.930 C 2922.512 1710.099, 2920.293 1726.448, 2919.758 1724.430 C 2919.032 1721.690, 2902 1612.778, 2902 1610.874 C 2902 1610.393, 2897.959 1610, 2893.019 1610 C 2884.518 1610, 2884.012 1610.120, 2883.547 1612.250 C 2883.277 1613.487, 2879.172 1639.700, 2874.426 1670.500 C 2869.679 1701.300, 2865.677 1726.628, 2865.531 1726.784 C 2865.080 1727.267, 2864.325 1721.165, 2857.862 1664.750 L 2851.590 1610 2840.295 1610 C 2834.083 1610, 2829 1610.332, 2829 1610.738 M 2965 1692 L 2965 1774 2975.961 1774 L 2986.921 1774 2987.211 1729.750 C 2987.530 1680.925, 2987.591 1680.445, 2993.920 1676.706 C 2997.505 1674.589, 3005.120 1674.493, 3009.033 1676.517 C 3015.474 1679.848, 3015.470 1679.818, 3015.789 1729.250 L 3016.078 1774 3027.091 1774 L 3038.104 1774 3037.802 1724.750 L 3037.500 1675.500 3034.585 1669.187 C 3029.542 1658.264, 3021.383 1653.423, 3008.411 1653.655 C 3001.514 1653.778, 2994.068 1656.606, 2989.750 1660.741 L 2987 1663.374 2987 1636.687 L 2987 1610 2976 1610 L 2965 1610 2965 1692 M 3997 1620.500 L 3997 1631 4011.500 1631 L 4026 1631 4026 1702.500 L 4026 1774 4037.500 1774 L 4049 1774 4049 1702.500 L 4049 1631 4063.500 1631 L 4078 1631 4078 1620.500 L 4078 1610 4037.500 1610 L 3997 1610 3997 1620.500 M 4086 1692 L 4086 1774 4096.961 1774 L 4107.921 1774 4108.211 1729.750 C 4108.530 1680.925, 4108.591 1680.445, 4114.920 1676.706 C 4118.505 1674.589, 4126.120 1674.493, 4130.033 1676.517 C 4136.474 1679.848, 4136.470 1679.818, 4136.789 1729.250 L 4137.078 1774 4148.091 1774 L 4159.104 1774 4158.802 1724.750 L 4158.500 1675.500 4155.585 1669.187 C 4150.542 1658.264, 4142.383 1653.423, 4129.411 1653.655 C 4122.514 1653.778, 4115.068 1656.606, 4110.750 1660.741 L 4108 1663.374 4108 1636.687 L 4108 1610 4097 1610 L 4086 1610 4086 1692 M 3744 1624.500 L 3744 1636 3755 1636 L 3766 1636 3766 1624.500 L 3766 1613 3755 1613 L 3744 1613 3744 1624.500 M 4250 1624.500 L 4250 1636 4261 1636 L 4272 1636 4272 1624.500 L 4272 1613 4261 1613 L 4250 1613 4250 1624.500 M 3687 1638.500 L 3687 1655 3681 1655 L 3675 1655 3675 1666 L 3675 1677 3680.946 1677 L 3686.892 1677 3687.196 1715.750 C 3687.497 1754.056, 3687.527 1754.560, 3689.870 1759.742 C 3692.690 1765.981, 3698.400 1771.448, 3703.679 1772.964 C 3705.781 1773.568, 3712.113 1774.340, 3717.750 1774.681 L 3728 1775.301 3728 1764.151 L 3728 1753 3721.434 1753 C 3717.823 1753, 3714.045 1752.559, 3713.039 1752.021 C 3709.427 1750.088, 3709 1745.733, 3709 1710.851 L 3709 1677 3718.500 1677 L 3728 1677 3728 1666 L 3728 1655 3718.500 1655 L 3709 1655 3709 1638.500 L 3709 1622 3698 1622 L 3687 1622 3687 1638.500 M 3084.490 1653.976 C 3070.783 1656.019, 3060.342 1666.634, 3057.124 1681.799 C 3055.455 1689.666, 3055.640 1743.065, 3057.359 1749.500 C 3059.433 1757.264, 3062.453 1762.323, 3067.980 1767.292 C 3074.690 1773.325, 3080.953 1775.394, 3092.500 1775.394 C 3105.071 1775.394, 3110.896 1773.272, 3118.041 1766.090 C 3124.069 1760.029, 3126.266 1754.844, 3127.503 1743.750 L 3128.144 1738 3117.072 1738 L 3106 1738 3106 1740.532 C 3106 1748.222, 3100.343 1754, 3092.815 1754 C 3082.003 1754, 3078.058 1748.467, 3078.022 1733.250 L 3078 1724 3102.500 1724 L 3127 1724 3127 1704.210 C 3127 1682.013, 3125.940 1675.699, 3120.895 1667.837 C 3113.950 1657.014, 3099.929 1651.675, 3084.490 1653.976 M 3192.226 1654.112 C 3185.973 1655.154, 3178.135 1658.910, 3172.250 1663.685 L 3168 1667.134 3168 1661.067 L 3168 1655 3157 1655 L 3146 1655 3146 1714.500 L 3146 1774 3156.948 1774 L 3167.895 1774 3168.198 1733.750 C 3168.491 1694.714, 3168.565 1693.379, 3170.658 1689.500 C 3175.248 1680.994, 3182.761 1676.611, 3194.750 1675.446 L 3202 1674.742 3202 1663.871 C 3202 1651.511, 3202.835 1652.345, 3192.226 1654.112 M 3239.490 1653.976 C 3225.783 1656.019, 3215.342 1666.634, 3212.124 1681.799 C 3210.455 1689.666, 3210.640 1743.065, 3212.359 1749.500 C 3214.433 1757.264, 3217.453 1762.323, 3222.980 1767.292 C 3229.690 1773.325, 3235.953 1775.394, 3247.500 1775.394 C 3260.071 1775.394, 3265.896 1773.272, 3273.041 1766.090 C 3279.069 1760.029, 3281.266 1754.844, 3282.503 1743.750 L 3283.144 1738 3272.072 1738 L 3261 1738 3261 1740.532 C 3261 1748.222, 3255.343 1754, 3247.815 1754 C 3237.003 1754, 3233.058 1748.467, 3233.022 1733.250 L 3233 1724 3257.500 1724 L 3282 1724 3282 1704.210 C 3282 1682.013, 3280.940 1675.699, 3275.895 1667.837 C 3268.950 1657.014, 3254.929 1651.675, 3239.490 1653.976 M 3485.226 1654.112 C 3478.973 1655.154, 3471.135 1658.910, 3465.250 1663.685 L 3461 1667.134 3461 1661.067 L 3461 1655 3450 1655 L 3439 1655 3439 1714.500 L 3439 1774 3449.948 1774 L 3460.895 1774 3461.198 1733.750 C 3461.491 1694.714, 3461.565 1693.379, 3463.658 1689.500 C 3468.248 1680.994, 3475.761 1676.611, 3487.750 1675.446 L 3495 1674.742 3495 1663.871 C 3495 1651.511, 3495.835 1652.345, 3485.226 1654.112 M 3532.490 1653.976 C 3518.783 1656.019, 3508.342 1666.634, 3505.124 1681.799 C 3503.455 1689.666, 3503.640 1743.065, 3505.359 1749.500 C 3507.433 1757.264, 3510.453 1762.323, 3515.980 1767.292 C 3522.690 1773.325, 3528.953 1775.394, 3540.500 1775.394 C 3553.071 1775.394, 3558.896 1773.272, 3566.041 1766.090 C 3572.069 1760.029, 3574.266 1754.844, 3575.503 1743.750 L 3576.144 1738 3565.072 1738 L 3554 1738 3554 1740.532 C 3554 1748.222, 3548.343 1754, 3540.815 1754 C 3530.003 1754, 3526.058 1748.467, 3526.022 1733.250 L 3526 1724 3550.500 1724 L 3575 1724 3575 1704.210 C 3575 1682.013, 3573.940 1675.699, 3568.895 1667.837 C 3561.950 1657.014, 3547.929 1651.675, 3532.490 1653.976 M 3620.791 1654.062 C 3605.316 1656.383, 3595.227 1667.273, 3594.212 1682.750 L 3593.737 1690 3604.241 1690 L 3614.744 1690 3615.401 1685.895 C 3616.903 1676.498, 3622.186 1672.201, 3630.672 1673.473 C 3639.379 1674.779, 3643 1680.900, 3643 1694.312 L 3643 1700.739 3629.734 1701.189 C 3615.294 1701.679, 3609.289 1703.475, 3602.282 1709.402 C 3591.213 1718.765, 3587.665 1747.427, 3595.739 1762.263 C 3600.798 1771.556, 3608.108 1775.261, 3621.624 1775.382 C 3629.988 1775.457, 3631.259 1775.200, 3636.874 1772.304 L 3643 1769.145 3643 1771.572 C 3643 1773.989, 3643.048 1774, 3653.545 1774 L 3664.090 1774 3663.795 1725.727 L 3663.500 1677.453 3660.160 1670.671 C 3657.726 1665.728, 3655.556 1662.955, 3652.160 1660.444 C 3644.576 1654.838, 3632.285 1652.337, 3620.791 1654.062 M 3811.800 1654.060 C 3800.737 1655.720, 3792.191 1662.039, 3787.606 1671.949 C 3785.582 1676.324, 3785.500 1677.972, 3785.500 1714.500 C 3785.500 1751.205, 3785.573 1752.657, 3787.637 1757.122 C 3790.871 1764.116, 3796.181 1769.360, 3803.238 1772.526 C 3808.577 1774.922, 3810.827 1775.341, 3818.500 1775.367 C 3829.102 1775.402, 3834.072 1774.139, 3840.651 1769.736 C 3846.808 1765.616, 3851.446 1758.003, 3852.906 1749.620 C 3854.337 1741.400, 3854.343 1687.241, 3852.913 1679.434 C 3849.485 1660.713, 3833.443 1650.813, 3811.800 1654.060 M 3910.297 1654.013 C 3905.295 1655.045, 3902.765 1656.298, 3897.750 1660.229 L 3894 1663.168 3894 1659.084 L 3894 1655 3883 1655 L 3872 1655 3872 1714.500 L 3872 1774 3882.961 1774 L 3893.921 1774 3894.211 1729.750 C 3894.530 1680.925, 3894.591 1680.445, 3900.920 1676.706 C 3904.505 1674.589, 3912.120 1674.493, 3916.033 1676.517 C 3922.474 1679.848, 3922.470 1679.818, 3922.789 1729.250 L 3923.078 1774 3934.091 1774 L 3945.104 1774 3944.802 1724.750 L 3944.500 1675.500 3941.585 1669.187 C 3938.301 1662.074, 3932.984 1656.894, 3927.258 1655.228 C 3921.417 1653.530, 3914.900 1653.063, 3910.297 1654.013 M 4225.226 1654.112 C 4218.973 1655.154, 4211.135 1658.910, 4205.250 1663.685 L 4201 1667.134 4201 1661.067 L 4201 1655 4190 1655 L 4179 1655 4179 1714.500 L 4179 1774 4189.948 1774 L 4200.895 1774 4201.198 1733.750 C 4201.491 1694.714, 4201.565 1693.379, 4203.658 1689.500 C 4208.248 1680.994, 4215.761 1676.611, 4227.750 1675.446 L 4235 1674.742 4235 1663.871 C 4235 1651.511, 4235.835 1652.345, 4225.226 1654.112 M 4403.490 1653.976 C 4389.783 1656.019, 4379.342 1666.634, 4376.124 1681.799 C 4374.455 1689.666, 4374.640 1743.065, 4376.359 1749.500 C 4378.433 1757.264, 4381.453 1762.323, 4386.980 1767.292 C 4393.690 1773.325, 4399.953 1775.394, 4411.500 1775.394 C 4424.071 1775.394, 4429.896 1773.272, 4437.041 1766.090 C 4443.069 1760.029, 4445.266 1754.844, 4446.503 1743.750 L 4447.144 1738 4436.072 1738 L 4425 1738 4425 1740.532 C 4425 1748.222, 4419.343 1754, 4411.815 1754 C 4401.003 1754, 4397.058 1748.467, 4397.022 1733.250 L 4397 1724 4421.500 1724 L 4446 1724 4446 1704.210 C 4446 1682.013, 4444.940 1675.699, 4439.895 1667.837 C 4432.950 1657.014, 4418.929 1651.675, 4403.490 1653.976 M 4487.500 1653.961 C 4470.447 1656.620, 4461.045 1668.903, 4461.012 1688.568 C 4460.980 1707.446, 4469.939 1717.494, 4493.450 1724.951 C 4506.742 1729.167, 4510 1732.176, 4510 1740.234 C 4510 1750.051, 4505.149 1755.231, 4495.953 1755.231 C 4487.105 1755.231, 4482.064 1750.726, 4481.233 1742.074 L 4480.746 1737 4470.244 1737 L 4459.743 1737 4460.200 1744.889 C 4460.940 1757.682, 4466.463 1766.624, 4476.915 1771.957 C 4482.046 1774.574, 4493.187 1776.293, 4500 1775.517 C 4515.011 1773.810, 4522.919 1768.972, 4528.186 1758.274 C 4531.337 1751.874, 4531.499 1750.999, 4531.479 1740.521 C 4531.453 1727.303, 4529.355 1721.425, 4522.356 1714.974 C 4517.453 1710.454, 4514.076 1708.828, 4499.628 1704.031 C 4484.898 1699.141, 4481.278 1694.731, 4483.184 1684 C 4484.302 1677.706, 4488.484 1674, 4494.469 1674 C 4496.909 1674, 4500.030 1674.512, 4501.405 1675.139 C 4504.484 1676.541, 4507 1681.606, 4507 1686.401 L 4507 1690 4518.138 1690 L 4529.276 1690 4528.605 1683.449 C 4526.700 1664.857, 4516.858 1655.118, 4498.500 1653.659 C 4495.200 1653.397, 4490.250 1653.533, 4487.500 1653.961 M 3744 1714.500 L 3744 1774 3755 1774 L 3766 1774 3766 1714.500 L 3766 1655 3755 1655 L 3744 1655 3744 1714.500 M 4250 1714.500 L 4250 1774 4261 1774 L 4272 1774 4272 1714.500 L 4272 1655 4261 1655 L 4250 1655 4250 1714.500 M 4285 1655.908 C 4285 1656.743, 4311.281 1753.799, 4315.555 1768.750 L 4317.056 1774 4326.420 1774 C 4335.294 1774, 4335.813 1773.883, 4336.354 1771.750 C 4337.542 1767.065, 4366.952 1658.726, 4367.530 1656.907 C 4368.101 1655.107, 4367.493 1655, 4356.668 1655 L 4345.202 1655 4341.704 1669.750 C 4339.780 1677.862, 4335.598 1695.851, 4332.410 1709.724 C 4329.223 1723.597, 4326.456 1734.789, 4326.262 1734.596 C 4326.069 1734.402, 4321.754 1716.526, 4316.673 1694.872 L 4307.436 1655.500 4296.218 1655.217 C 4289.417 1655.046, 4285 1655.318, 4285 1655.908 M 3087.686 1675.006 C 3080.849 1677.084, 3078.053 1682.941, 3078.022 1695.250 L 3078 1704 3091.594 1704 L 3105.187 1704 3104.831 1694.250 C 3104.612 1688.250, 3103.903 1683.381, 3102.988 1681.590 C 3100.179 1676.096, 3093.524 1673.233, 3087.686 1675.006 M 3242.686 1675.006 C 3235.849 1677.084, 3233.053 1682.941, 3233.022 1695.250 L 3233 1704 3246.594 1704 L 3260.187 1704 3259.831 1694.250 C 3259.612 1688.250, 3258.903 1683.381, 3257.988 1681.590 C 3255.179 1676.096, 3248.524 1673.233, 3242.686 1675.006 M 3535.686 1675.006 C 3528.849 1677.084, 3526.053 1682.941, 3526.022 1695.250 L 3526 1704 3539.594 1704 L 3553.187 1704 3552.831 1694.250 C 3552.612 1688.250, 3551.903 1683.381, 3550.988 1681.590 C 3548.179 1676.096, 3541.524 1673.233, 3535.686 1675.006 M 4406.686 1675.006 C 4399.849 1677.084, 4397.053 1682.941, 4397.022 1695.250 L 4397 1704 4410.594 1704 L 4424.187 1704 4423.831 1694.250 C 4423.612 1688.250, 4422.903 1683.381, 4421.988 1681.590 C 4419.179 1676.096, 4412.524 1673.233, 4406.686 1675.006 M 3814.500 1675.903 C 3813.400 1676.386, 3811.375 1677.991, 3810 1679.470 L 3807.500 1682.158 3807.209 1713.014 C 3806.877 1748.284, 3807.142 1749.908, 3813.678 1752.639 C 3818.538 1754.670, 3824.575 1753.880, 3827.643 1750.812 C 3831.427 1747.027, 3832.209 1739.427, 3831.783 1710.570 C 3831.376 1682.982, 3830.959 1680.330, 3826.583 1677.462 C 3823.582 1675.496, 3817.278 1674.683, 3814.500 1675.903 M 3623.942 1720.929 C 3616.914 1723.113, 3614.484 1726.382, 3612.970 1735.686 C 3611.803 1742.853, 3613.293 1749.987, 3616.606 1753.099 C 3620.204 1756.480, 3631.064 1757.007, 3635.810 1754.031 C 3640.994 1750.782, 3642.355 1746.356, 3642.433 1732.500 L 3642.500 1720.500 3634.500 1720.317 C 3630.100 1720.217, 3625.349 1720.492, 3623.942 1720.929" stroke="none" fill="#ffffff" fill-rule="evenodd"/>
</svg>